<?xml version="1.0" encoding="UTF-8"?>
<mxfile host="app.diagrams.net" modified="2025-01-11T12:00:00.000Z" agent="5.0" etag="roblox-architecture" version="24.0.0" type="device">
  <diagram name="Project Architecture" id="project-architecture">
    <mxGraphModel dx="1426" dy="794" grid="1" gridSize="10" guides="1" tooltips="1" connect="1" arrows="1" fold="1" page="1" pageScale="1" pageWidth="1654" pageHeight="1169" math="0" shadow="0">
      <root>
        <mxCell id="0" />
        <mxCell id="1" parent="0" />
        
        <!-- Title -->
        <mxCell id="title" value="Roblox 3D Graph Visualization - System Architecture" style="text;html=1;strokeColor=none;fillColor=none;align=center;verticalAlign=middle;whiteSpace=wrap;rounded=0;fontSize=24;fontStyle=1" vertex="1" parent="1">
          <mxGeometry x="500" y="20" width="600" height="40" as="geometry" />
        </mxCell>
        
        <!-- Client Layer -->
        <mxCell id="client-layer" value="Client Layer (17%)" style="swimlane;fillColor=#dae8fc;strokeColor=#6c8ebf;fontSize=14;fontStyle=1" vertex="1" parent="1">
          <mxGeometry x="80" y="100" width="400" height="400" as="geometry" />
        </mxCell>
        
        <mxCell id="main-client" value="main.client.ts&#xa;(Entry Point)" style="rounded=1;whiteSpace=wrap;html=1;fillColor=#fff2cc;strokeColor=#d6b656;fontStyle=1" vertex="1" parent="client-layer">
          <mxGeometry x="20" y="40" width="120" height="60" as="geometry" />
        </mxCell>
        
        <mxCell id="controllers" value="Controllers" style="swimlane;fillColor=#f8cecc;strokeColor=#b85450;" vertex="1" parent="client-layer">
          <mxGeometry x="20" y="120" width="180" height="120" as="geometry" />
        </mxCell>
        
        <mxCell id="config-gui" value="ConfigGUI&#xa;Controller" style="rounded=0;whiteSpace=wrap;html=1;" vertex="1" parent="controllers">
          <mxGeometry x="10" y="30" width="80" height="40" as="geometry" />
        </mxCell>
        
        <mxCell id="animation-gui" value="AnimationTest&#xa;Controller" style="rounded=0;whiteSpace=wrap;html=1;" vertex="1" parent="controllers">
          <mxGeometry x="95" y="30" width="80" height="40" as="geometry" />
        </mxCell>
        
        <mxCell id="services-client" value="Services" style="swimlane;fillColor=#e1d5e7;strokeColor=#9673a6;" vertex="1" parent="client-layer">
          <mxGeometry x="220" y="120" width="160" height="260" as="geometry" />
        </mxCell>
        
        <mxCell id="keyboard-service" value="Keyboard&#xa;Shortcuts" style="rounded=0;whiteSpace=wrap;html=1;" vertex="1" parent="services-client">
          <mxGeometry x="10" y="30" width="70" height="40" as="geometry" />
        </mxCell>
        
        <mxCell id="properties-inspector" value="Properties&#xa;Inspector" style="rounded=0;whiteSpace=wrap;html=1;" vertex="1" parent="services-client">
          <mxGeometry x="85" y="30" width="70" height="40" as="geometry" />
        </mxCell>
        
        <mxCell id="config-gui-service" value="ConfigGUI&#xa;Service&#xa;(14 files)" style="rounded=0;whiteSpace=wrap;html=1;fillColor=#ffe6cc;strokeColor=#d79b00;" vertex="1" parent="services-client">
          <mxGeometry x="10" y="80" width="145" height="60" as="geometry" />
        </mxCell>
        
        <!-- Server Layer -->
        <mxCell id="server-layer" value="Server Layer (7%)" style="swimlane;fillColor=#d5e8d4;strokeColor=#82b366;fontSize=14;fontStyle=1" vertex="1" parent="1">
          <mxGeometry x="520" y="100" width="400" height="400" as="geometry" />
        </mxCell>
        
        <mxCell id="main-server" value="main.server.ts&#xa;(Entry Point)" style="rounded=1;whiteSpace=wrap;html=1;fillColor=#fff2cc;strokeColor=#d6b656;fontStyle=1" vertex="1" parent="server-layer">
          <mxGeometry x="20" y="40" width="120" height="60" as="geometry" />
        </mxCell>
        
        <mxCell id="game-service" value="GameService&#xa;(Main Orchestrator)" style="rounded=1;whiteSpace=wrap;html=1;fillColor=#dae8fc;strokeColor=#6c8ebf;fontStyle=1" vertex="1" parent="server-layer">
          <mxGeometry x="160" y="40" width="140" height="60" as="geometry" />
        </mxCell>
        
        <mxCell id="server-services" value="Services" style="swimlane;fillColor=#e1d5e7;strokeColor=#9673a6;" vertex="1" parent="server-layer">
          <mxGeometry x="20" y="120" width="360" height="260" as="geometry" />
        </mxCell>
        
        <mxCell id="config-server" value="ConfigGUI&#xa;ServerService" style="rounded=0;whiteSpace=wrap;html=1;" vertex="1" parent="server-services">
          <mxGeometry x="10" y="30" width="100" height="50" as="geometry" />
        </mxCell>
        
        <mxCell id="graph-init" value="GraphInitializer&#xa;Service" style="rounded=0;whiteSpace=wrap;html=1;" vertex="1" parent="server-services">
          <mxGeometry x="120" y="30" width="100" height="50" as="geometry" />
        </mxCell>
        
        <mxCell id="link-counter" value="LinkTypeCounter&#xa;Service" style="rounded=0;whiteSpace=wrap;html=1;" vertex="1" parent="server-services">
          <mxGeometry x="230" y="30" width="100" height="50" as="geometry" />
        </mxCell>
        
        <!-- Shared Layer -->
        <mxCell id="shared-layer" value="Shared Layer (76%)" style="swimlane;fillColor=#f5f5f5;strokeColor=#666666;fontSize=14;fontStyle=1" vertex="1" parent="1">
          <mxGeometry x="80" y="540" width="840" height="580" as="geometry" />
        </mxCell>
        
        <mxCell id="data-module" value="Data Module&#xa;(40 files)" style="swimlane;fillColor=#ffe6cc;strokeColor=#d79b00;" vertex="1" parent="shared-layer">
          <mxGeometry x="20" y="40" width="180" height="140" as="geometry" />
        </mxCell>
        
        <mxCell id="entity-data" value="Entity Data&#xa;(15 types)" style="rounded=0;whiteSpace=wrap;html=1;" vertex="1" parent="data-module">
          <mxGeometry x="10" y="30" width="80" height="40" as="geometry" />
        </mxCell>
        
        <mxCell id="relation-data" value="Relation Data&#xa;(22 types)" style="rounded=0;whiteSpace=wrap;html=1;" vertex="1" parent="data-module">
          <mxGeometry x="95" y="30" width="80" height="40" as="geometry" />
        </mxCell>
        
        <mxCell id="interfaces-module" value="Interfaces" style="swimlane;fillColor=#dae8fc;strokeColor=#6c8ebf;" vertex="1" parent="shared-layer">
          <mxGeometry x="220" y="40" width="180" height="140" as="geometry" />
        </mxCell>
        
        <mxCell id="simple-interface" value="SimpleDataGenerator&#xa;Interface&#xa;(12 imports)" style="rounded=0;whiteSpace=wrap;html=1;fillColor=#fff2cc;strokeColor=#d6b656;" vertex="1" parent="interfaces-module">
          <mxGeometry x="10" y="30" width="160" height="40" as="geometry" />
        </mxCell>
        
        <mxCell id="enhanced-interface" value="EnhancedGenerator&#xa;Interface&#xa;(7 imports)" style="rounded=0;whiteSpace=wrap;html=1;fillColor=#fff2cc;strokeColor=#d6b656;" vertex="1" parent="interfaces-module">
          <mxGeometry x="10" y="80" width="160" height="40" as="geometry" />
        </mxCell>
        
        <mxCell id="renderers-module" value="Renderers" style="swimlane;fillColor=#d5e8d4;strokeColor=#82b366;" vertex="1" parent="shared-layer">
          <mxGeometry x="420" y="40" width="400" height="260" as="geometry" />
        </mxCell>
        
        <mxCell id="unified-renderer" value="UnifiedDataRenderer&#xa;(880 lines)&#xa;Main Orchestrator" style="rounded=1;whiteSpace=wrap;html=1;fillColor=#dae8fc;strokeColor=#6c8ebf;fontStyle=1" vertex="1" parent="renderers-module">
          <mxGeometry x="10" y="30" width="150" height="60" as="geometry" />
        </mxCell>
        
        <mxCell id="node-renderer" value="NodeRenderer&#xa;(1,153 lines)" style="rounded=0;whiteSpace=wrap;html=1;" vertex="1" parent="renderers-module">
          <mxGeometry x="10" y="100" width="100" height="40" as="geometry" />
        </mxCell>
        
        <mxCell id="connection-renderer" value="Connection&#xa;Renderer" style="rounded=0;whiteSpace=wrap;html=1;" vertex="1" parent="renderers-module">
          <mxGeometry x="120" y="100" width="100" height="40" as="geometry" />
        </mxCell>
        
        <mxCell id="label-renderer" value="Label&#xa;Renderer" style="rounded=0;whiteSpace=wrap;html=1;" vertex="1" parent="renderers-module">
          <mxGeometry x="230" y="100" width="100" height="40" as="geometry" />
        </mxCell>
        
        <mxCell id="renderer-managers" value="Managers" style="swimlane;fillColor=#e1d5e7;strokeColor=#9673a6;" vertex="1" parent="renderers-module">
          <mxGeometry x="10" y="150" width="380" height="100" as="geometry" />
        </mxCell>
        
        <mxCell id="lane-manager" value="Lane&#xa;Manager" style="rounded=0;whiteSpace=wrap;html=1;" vertex="1" parent="renderer-managers">
          <mxGeometry x="10" y="30" width="80" height="40" as="geometry" />
        </mxCell>
        
        <mxCell id="platform-manager" value="Platform&#xa;Manager" style="rounded=0;whiteSpace=wrap;html=1;" vertex="1" parent="renderer-managers">
          <mxGeometry x="100" y="30" width="80" height="40" as="geometry" />
        </mxCell>
        
        <mxCell id="wall-manager" value="Wall&#xa;Manager" style="rounded=0;whiteSpace=wrap;html=1;" vertex="1" parent="renderer-managers">
          <mxGeometry x="190" y="30" width="80" height="40" as="geometry" />
        </mxCell>
        
        <mxCell id="component-makers" value="Component Makers" style="swimlane;fillColor=#f8cecc;strokeColor=#b85450;" vertex="1" parent="shared-layer">
          <mxGeometry x="20" y="320" width="800" height="240" as="geometry" />
        </mxCell>
        
        <mxCell id="maker-pattern" value="Standardized Maker Pattern" style="text;html=1;strokeColor=none;fillColor=none;align=center;verticalAlign=middle;whiteSpace=wrap;rounded=0;fontStyle=2" vertex="1" parent="component-makers">
          <mxGeometry x="300" y="25" width="200" height="20" as="geometry" />
        </mxCell>
        
        <mxCell id="hexagon-maker" value="hexagonMaker" style="swimlane;fillColor=#fff2cc;strokeColor=#d6b656;" vertex="1" parent="component-makers">
          <mxGeometry x="10" y="50" width="150" height="100" as="geometry" />
        </mxCell>
        
        <mxCell id="hex-files" value="• constants.ts&#xa;• data.ts&#xa;• index.ts&#xa;• main.ts&#xa;• interfaces.ts" style="text;html=1;strokeColor=none;fillColor=none;align=left;verticalAlign=top;whiteSpace=wrap;rounded=0;" vertex="1" parent="hexagon-maker">
          <mxGeometry x="10" y="25" width="130" height="70" as="geometry" />
        </mxCell>
        
        <mxCell id="hexstack-maker" value="hexStackMaker" style="swimlane;fillColor=#fff2cc;strokeColor=#d6b656;" vertex="1" parent="component-makers">
          <mxGeometry x="170" y="50" width="150" height="100" as="geometry" />
        </mxCell>
        
        <mxCell id="rope-maker" value="ropeLabelMaker" style="swimlane;fillColor=#fff2cc;strokeColor=#d6b656;" vertex="1" parent="component-makers">
          <mxGeometry x="330" y="50" width="150" height="100" as="geometry" />
        </mxCell>
        
        <mxCell id="label-maker" value="labelBlockMaker" style="swimlane;fillColor=#fff2cc;strokeColor=#d6b656;" vertex="1" parent="component-makers">
          <mxGeometry x="490" y="50" width="150" height="100" as="geometry" />
        </mxCell>
        
        <!-- Connections -->
        <mxCell id="edge1" edge="1" parent="1" source="main-client" target="controllers">
          <mxGeometry relative="1" as="geometry" />
        </mxCell>
        
        <mxCell id="edge2" edge="1" parent="1" source="main-client" target="services-client">
          <mxGeometry relative="1" as="geometry" />
        </mxCell>
        
        <mxCell id="edge3" edge="1" parent="1" source="main-server" target="game-service">
          <mxGeometry relative="1" as="geometry" />
        </mxCell>
        
        <mxCell id="edge4" edge="1" parent="1" source="game-service" target="server-services">
          <mxGeometry relative="1" as="geometry" />
        </mxCell>
        
        <!-- Cross-layer connections -->
        <mxCell id="edge5" value="RemoteEvent" style="edgeStyle=orthogonalEdgeStyle;rounded=0;orthogonalLoop=1;jettySize=auto;html=1;exitX=0.5;exitY=1;exitDx=0;exitDy=0;entryX=0.5;entryY=0;entryDx=0;entryDy=0;strokeColor=#FF0000;strokeWidth=2;" edge="1" parent="1" source="config-gui" target="config-server">
          <mxGeometry relative="1" as="geometry" />
        </mxCell>
        
        <mxCell id="edge6" style="edgeStyle=orthogonalEdgeStyle;rounded=0;orthogonalLoop=1;jettySize=auto;html=1;exitX=0.5;exitY=1;exitDx=0;exitDy=0;entryX=0.5;entryY=0;entryDx=0;entryDy=0;strokeColor=#0000FF;strokeWidth=2;" edge="1" parent="1" source="config-server" target="unified-renderer">
          <mxGeometry relative="1" as="geometry" />
        </mxCell>
        
        <mxCell id="edge7" style="edgeStyle=orthogonalEdgeStyle;rounded=0;orthogonalLoop=1;jettySize=auto;html=1;exitX=0.5;exitY=1;exitDx=0;exitDy=0;entryX=0.5;entryY=0;entryDx=0;entryDy=0;strokeColor=#0000FF;strokeWidth=2;" edge="1" parent="1" source="graph-init" target="data-module">
          <mxGeometry relative="1" as="geometry" />
        </mxCell>
        
        <!-- Legend -->
        <mxCell id="legend" value="Legend" style="swimlane;fillColor=#f5f5f5;strokeColor=#666666;" vertex="1" parent="1">
          <mxGeometry x="960" y="100" width="200" height="200" as="geometry" />
        </mxCell>
        
        <mxCell id="legend-entry" value="Entry Point" style="rounded=1;whiteSpace=wrap;html=1;fillColor=#fff2cc;strokeColor=#d6b656;" vertex="1" parent="legend">
          <mxGeometry x="10" y="30" width="80" height="30" as="geometry" />
        </mxCell>
        
        <mxCell id="legend-hub" value="Hub Module" style="rounded=0;whiteSpace=wrap;html=1;fillColor=#fff2cc;strokeColor=#d6b656;" vertex="1" parent="legend">
          <mxGeometry x="10" y="70" width="80" height="30" as="geometry" />
        </mxCell>
        
        <mxCell id="legend-service" value="Service" style="rounded=0;whiteSpace=wrap;html=1;" vertex="1" parent="legend">
          <mxGeometry x="10" y="110" width="80" height="30" as="geometry" />
        </mxCell>
        
        <mxCell id="legend-remote" value="RemoteEvent" style="text;html=1;strokeColor=none;fillColor=none;align=left;verticalAlign=middle;whiteSpace=wrap;rounded=0;" vertex="1" parent="legend">
          <mxGeometry x="100" y="30" width="90" height="30" as="geometry" />
        </mxCell>
        
        <mxCell id="legend-remote-line" style="endArrow=classic;html=1;strokeColor=#FF0000;strokeWidth=2;" edge="1" parent="legend">
          <mxGeometry width="50" height="50" relative="1" as="geometry">
            <mxPoint x="100" y="50" as="sourcePoint" />
            <mxPoint x="180" y="50" as="targetPoint" />
          </mxGeometry>
        </mxCell>
        
      </root>
    </mxGraphModel>
  </diagram>
</mxfile>